<svg xmlns="http://www.w3.org/2000/svg" viewBox="0 0 800 200">
  <!-- Background -->
  <rect width="800" height="200" fill="#0D1117" />
  
  <!-- Grid lines -->
  <g stroke="#303644" stroke-width="0.5">
    <line x1="0" y1="40" x2="800" y2="40" />
    <line x1="0" y1="80" x2="800" y2="80" />
    <line x1="0" y1="120" x2="800" y2="120" />
    <line x1="0" y1="160" x2="800" y2="160" />
    
    <line x1="100" y1="0" x2="100" y2="200" />
    <line x1="200" y1="0" x2="200" y2="200" />
    <line x1="300" y1="0" x2="300" y2="200" />
    <line x1="400" y1="0" x2="400" y2="200" />
    <line x1="500" y1="0" x2="500" y2="200" />
    <line x1="600" y1="0" x2="600" y2="200" />
    <line x1="700" y1="0" x2="700" y2="200" />
  </g>
  
  <!-- Matrix Binary Background (subtle) -->
  <g font-family="Courier New" font-size="10" fill-opacity="0.15" fill="#00ff00">
    <text x="10" y="20">01100101</text>
    <text x="210" y="40">10011010</text>
    <text x="450" y="30">11100010</text>
    <text x="680" y="25">01010001</text>
    <text x="120" y="70">10001011</text>
    <text x="340" y="85">00110100</text>
    <text x="560" y="75">11010010</text>
    <text x="40" y="120">01001101</text>
    <text x="250" y="135">10110001</text>
    <text x="490" y="125">00111100</text>
    <text x="150" y="180">01111000</text>
    <text x="380" y="195">10100110</text>
    <text x="620" y="185">00010111</text>
  </g>
  
  <!-- Main Quantum Circle -->
  <circle cx="400" cy="100" r="70" fill="none" stroke="#58A6FF" stroke-width="2" stroke-dasharray="10, 4" />
  
  <!-- Quantum Orbits -->
  <ellipse cx="400" cy="100" rx="90" ry="50" fill="none" stroke="#58A6FF" stroke-width="1.5" stroke-opacity="0.7" />
  
  <!-- Quantum Wave Function -->
  <path d="M100,100 Q150,50 200,100 Q250,150 300,100 Q350,50 400,100 Q450,150 500,100 Q550,50 600,100 Q650,150 700,100" fill="none" stroke="#58A6FF" stroke-width="2" />
  
  <!-- Quantum Particles -->
  <circle cx="400" cy="30" r="5" fill="#00ffcc" />
  <circle cx="470" cy="100" r="5" fill="#00ffcc" />
  <circle cx="400" cy="170" r="5" fill="#00ffcc" />
  <circle cx="330" cy="100" r="5" fill="#00ffcc" />
  
  <!-- Neural Network Nodes -->
  <!-- Input Layer -->
  <circle cx="150" cy="60" r="5" fill="#7B42BC" />
  <circle cx="150" cy="100" r="5" fill="#7B42BC" />
  <circle cx="150" cy="140" r="5" fill="#7B42BC" />
  
  <!-- Hidden Layer -->
  <circle cx="250" cy="70" r="5" fill="#7B42BC" />
  <circle cx="250" cy="100" r="5" fill="#7B42BC" />
  <circle cx="250" cy="130" r="5" fill="#7B42BC" />
  
  <!-- Hidden Layer 2 -->
  <circle cx="600" cy="70" r="5" fill="#7B42BC" />
  <circle cx="600" cy="100" r="5" fill="#7B42BC" />
  <circle cx="600" cy="130" r="5" fill="#7B42BC" />
  
  <!-- Output Layer -->
  <circle cx="700" cy="85" r="5" fill="#7B42BC" />
  <circle cx="700" cy="115" r="5" fill="#7B42BC" />
  
  <!-- Neural Network Connections -->
  <!-- Input to Hidden -->
  <line x1="150" y1="60" x2="250" y2="70" stroke="#7B42BC" stroke-width="1" stroke-opacity="0.5" />
  <line x1="150" y1="60" x2="250" y2="100" stroke="#7B42BC" stroke-width="1" stroke-opacity="0.5" />
  <line x1="150" y1="60" x2="250" y2="130" stroke="#7B42BC" stroke-width="1" stroke-opacity="0.5" />
  
  <line x1="150" y1="100" x2="250" y2="70" stroke="#7B42BC" stroke-width="1" stroke-opacity="0.5" />
  <line x1="150" y1="100" x2="250" y2="100" stroke="#7B42BC" stroke-width="1" stroke-opacity="0.5" />
  <line x1="150" y1="100" x2="250" y2="130" stroke="#7B42BC" stroke-width="1" stroke-opacity="0.5" />
  
  <line x1="150" y1="140" x2="250" y2="70" stroke="#7B42BC" stroke-width="1" stroke-opacity="0.5" />
  <line x1="150" y1="140" x2="250" y2="100" stroke="#7B42BC" stroke-width="1" stroke-opacity="0.5" />
  <line x1="150" y1="140" x2="250" y2="130" stroke="#7B42BC" stroke-width="1" stroke-opacity="0.5" />
  
  <!-- Hidden to Output -->
  <line x1="600" y1="70" x2="700" y2="85" stroke="#7B42BC" stroke-width="1" stroke-opacity="0.5" />
  <line x1="600" y1="70" x2="700" y2="115" stroke="#7B42BC" stroke-width="1" stroke-opacity="0.5" />
  
  <line x1="600" y1="100" x2="700" y2="85" stroke="#7B42BC" stroke-width="1" stroke-opacity="0.5" />
  <line x1="600" y1="100" x2="700" y2="115" stroke="#7B42BC" stroke-width="1" stroke-opacity="0.5" />
  
  <line x1="600" y1="130" x2="700" y2="85" stroke="#7B42BC" stroke-width="1" stroke-opacity="0.5" />
  <line x1="600" y1="130" x2="700" y2="115" stroke="#7B42BC" stroke-width="1" stroke-opacity="0.5" />
  
  <!-- Labels -->
  <g font-family="Arial, sans-serif" fill="#ffffff" font-weight="bold">
    <text x="150" y="30" text-anchor="middle" font-size="12">AI</text>
    <text x="400" y="30" text-anchor="middle" font-size="12">QUANTUM</text>
    <text x="700" y="30" text-anchor="middle" font-size="12">ML</text>
    
    <text x="400" y="180" text-anchor="middle" font-size="14" fill="#58A6FF">QUANTUM COMPUTING & ARTIFICIAL INTELLIGENCE</text>
  </g>
</svg>
